<svg width="32" height="37" viewBox="0 0 32 37" fill="none" xmlns="http://www.w3.org/2000/svg">
<path fill-rule="evenodd" clip-rule="evenodd" d="M12.2033 30.0886C14.8933 31.7232 23.0258 32.455 26.8223 23.9269C27.751 21.8407 24.6088 19.4826 23.264 17.5397C25.3211 13.8947 23.9127 10.3914 21.3395 8.86148C16.0329 5.70647 8.51015 8.69128 6.20224 14.171C5.26686 16.3924 4.52251 19.5368 7.18297 22.1229C9.12728 24.0129 10.0287 23.2988 10.8486 23.5613C11.4087 25.7012 11.7608 27.9188 12.2033 30.0886Z" stroke="#EF4444" stroke-width="2.93433" stroke-miterlimit="1.5" stroke-linecap="round" stroke-linejoin="round"/>
<path d="M23.4202 17.4209C22.5863 16.1677 21.6782 14.9398 20.7365 13.7893" stroke="#EF4444" stroke-width="2.93433" stroke-miterlimit="1.5" stroke-linecap="round" stroke-linejoin="round"/>
<path d="M10.826 23.8667C10.5885 22.3301 10.5088 20.7713 10.2693 19.233" stroke="#EF4444" stroke-width="2.93433" stroke-miterlimit="1.5" stroke-linecap="round" stroke-linejoin="round"/>
<path d="M10.7096 2.23021C11.3028 4.29929 12.285 6.30681 13.028 8.32888" stroke="#111827" stroke-width="2.93433" stroke-miterlimit="1.5" stroke-linecap="round" stroke-linejoin="round"/>
<path d="M26.2496 22.9504C25.2895 22.1028 24.0789 21.846 22.9434 21.7377C20.0615 21.4634 16.6367 22.6117 14.8272 25.1929" stroke="#EF4444" stroke-width="2.93433" stroke-miterlimit="1.5" stroke-linecap="round" stroke-linejoin="round"/>
</svg>
