<svg width="49" height="58" viewBox="0 0 49 58" fill="none" xmlns="http://www.w3.org/2000/svg">
<path fill-rule="evenodd" clip-rule="evenodd" d="M38.2491 16.1846C39.0445 14.2572 40.5576 11.5048 40.0719 7.94218C39.5736 4.28678 35.2491 1.91007 31.5522 2.77196C27.747 3.65893 25.7546 6.78308 23.8753 10.4527C18.8893 20.1872 11.4392 33.7605 8.19857 41.7718C8.02066 42.2115 9.0079 48.9564 9.5169 52.5207C9.71526 53.9097 9.80487 55.6408 11.1494 56.246C12.4862 56.8478 13.9552 55.8714 15.1324 55.0057C17.8048 53.0401 20.2092 50.6494 22.6202 48.3185C23.5654 47.4047 33.579 26.4157 38.2491 16.1846V16.1846Z" stroke="#111827" stroke-width="2.93433" stroke-miterlimit="1.5" stroke-linecap="round" stroke-linejoin="round"/>
<path fill-rule="evenodd" clip-rule="evenodd" d="M24.8495 7.82738C24.3479 8.63846 23.8786 9.50788 23.4162 10.4106C22.5768 12.0489 21.6674 13.7965 20.7201 15.6075C20.8511 15.6323 20.9811 15.657 21.1103 15.681C25.9025 16.567 31.0156 19.1475 34.7631 22.5811C35.8784 20.1968 36.9033 17.9834 37.7514 16.1258C37.8385 15.9149 37.9342 15.6942 38.0348 15.4636C34.6899 11.4885 29.9835 8.28524 24.8495 7.82738V7.82738Z" stroke="#111827" stroke-width="2.93433" stroke-miterlimit="1.5" stroke-linecap="round" stroke-linejoin="round"/>
<path d="M8.87797 41.8963C9.27 41.5897 10.1467 41.242 10.6085 41.0904C13.0591 40.2863 14.1386 42.9184 14.4035 44.9978C14.9076 44.3074 15.5635 43.6159 16.3164 43.2605C18.5275 42.2169 19.7784 44.1055 19.5192 46.2808C21.1461 45.1944 23.9305 45.2793 23.3099 48.1276" stroke="#111827" stroke-width="2.93433" stroke-miterlimit="1.5" stroke-linecap="round" stroke-linejoin="round"/>
<path d="M10.1524 50.3854C11.5948 49.8414 13.211 49.8655 14.6685 50.3374C16.1871 50.8291 17.5334 51.8071 18.3316 53.1354" stroke="#111827" stroke-width="2.93433" stroke-miterlimit="1.5" stroke-linecap="round" stroke-linejoin="round"/>
<path d="M13.8784 44.9161C15.048 41.8613 17.0843 36.9993 18.6734 33.6634C21.2081 28.3427 24.0205 22.2811 26.7525 17.0614" stroke="#111827" stroke-width="2.93433" stroke-miterlimit="1.5" stroke-linecap="round" stroke-linejoin="round"/>
<path d="M19.0043 46.4675C23.3002 38.092 27.1282 28.1858 31.7387 19.9771" stroke="#111827" stroke-width="2.93433" stroke-miterlimit="1.5" stroke-linecap="round" stroke-linejoin="round"/>
</svg>
