<svg width="43" height="50" viewBox="0 0 43 50" fill="none" xmlns="http://www.w3.org/2000/svg">
<path d="M32.9969 33.6395C26.8541 32.8317 16.8211 31.101 11.1962 29.9236C16.6706 22.0518 20.7746 18.2649 27.023 10.5204" stroke="#111827" stroke-width="2.93433" stroke-miterlimit="1.5" stroke-linecap="round" stroke-linejoin="round"/>
<path d="M27.3422 2.48086C25.2555 2.4075 23.9103 4.83665 23.4425 6.89635C22.5636 10.765 24.1937 16.0496 28.3017 15.6667C30.6533 15.4475 32.6809 14.3287 34.0287 11.9745C36.7893 7.15274 33.9257 1.09642 29.0609 1.69585" stroke="#EF4444" stroke-width="2.93433" stroke-miterlimit="1.5" stroke-linecap="round" stroke-linejoin="round"/>
<path d="M33.8221 28.2742C28.6126 29.3375 27.6581 40.5529 33.2747 40.9335C35.1476 41.0604 37.8031 40.5295 39.1056 38.7069C41.6958 35.0828 40.1686 29.5207 36.4643 28.863" stroke="#EF4444" stroke-width="2.93433" stroke-miterlimit="1.5" stroke-linecap="round" stroke-linejoin="round"/>
<path d="M12.8563 23.1359C11.2033 22.7343 9.03923 22.7295 7.55435 24.0523C4.59937 26.6847 3.87999 34.1422 7.24879 36.1355C14.0094 40.1359 19.2797 29.125 14.0314 23.9553" stroke="#EF4444" stroke-width="2.93433" stroke-miterlimit="1.5" stroke-linecap="round" stroke-linejoin="round"/>
</svg>
