<svg width="102" height="119" viewBox="0 0 102 119" fill="none" xmlns="http://www.w3.org/2000/svg">
<path fill-rule="evenodd" clip-rule="evenodd" d="M40.8065 6.46452C44.438 7.79313 48.0106 9.33519 51.6327 10.6911C52.3774 10.9706 54.8986 11.1858 55.3026 11.7954C55.8686 12.6505 54.2186 15.2202 53.8492 15.8307C51.9538 18.9607 49.8366 21.8394 47.7066 24.744C47.4593 25.0815 46.132 27.3033 45.7921 27.2335C44.5002 26.9686 44.0374 23.8341 43.7102 22.7759C42.2821 18.1562 40.2168 11.8693 39.8228 6.93901" fill="#34D399"/>
<path d="M40.8065 6.46452C44.438 7.79313 48.0106 9.33519 51.6327 10.6911C52.3774 10.9706 54.8986 11.1858 55.3026 11.7954C55.8686 12.6505 54.2186 15.2202 53.8492 15.8307C51.9538 18.9607 49.8366 21.8394 47.7066 24.744C47.4593 25.0815 46.132 27.3033 45.7921 27.2335C44.5002 26.9686 44.0374 23.8341 43.7102 22.7759C42.2821 18.1562 40.2168 11.8693 39.8228 6.93901" stroke="#111827" stroke-width="2.93433" stroke-miterlimit="1.5" stroke-linecap="round" stroke-linejoin="round"/>
<path d="M49.8459 18.1318C60.0979 25.4289 72.0315 40.3916 74.1103 54.8995C75.0536 61.4814 71.985 78.1597 63.4666 75.3095C54.1334 72.1863 62.656 57.0177 70.3561 62.2696C77.1647 66.9135 78.2649 76.8511 76.6789 85.0949C73.8757 99.6639 66.0981 110.025 54.5688 115.832" stroke="#111827" stroke-width="2.93433" stroke-miterlimit="1.5" stroke-linecap="round" stroke-linejoin="round"/>
</svg>
