<svg width="64" height="68" viewBox="0 0 64 68" fill="none" xmlns="http://www.w3.org/2000/svg">
<path fill-rule="evenodd" clip-rule="evenodd" d="M47.6959 46.0408C46.2726 39.8526 44.6563 33.6682 43.0236 27.5689C41.1793 30.6259 39.834 33.7504 38.4902 37.1186C36.1327 35.7504 32.0789 34.5915 29.409 34.3303C28.4489 38.2741 27.9863 41.587 27.6407 45.5431C24.943 45.2426 22.4204 45.3045 19.6861 45.7999C22.9582 50.3293 26.4829 54.5576 30.2352 58.5488C32.4212 56.6749 34.0556 54.5448 36.3232 52.7969C40.2197 49.793 43.3617 48.0575 47.6959 46.0408Z" stroke="#FCD34D" stroke-width="2.93433" stroke-miterlimit="1.5" stroke-linecap="round" stroke-linejoin="round"/>
<path d="M8.81665 49.96C10.2389 49.595 11.6736 49.2878 13.0909 48.8906" stroke="#111827" stroke-width="2.93433" stroke-miterlimit="1.5" stroke-linecap="round" stroke-linejoin="round"/>
<path d="M12.2646 26.5586C13.5263 27.6869 14.8671 28.6921 16.1433 29.7971" stroke="#111827" stroke-width="2.93433" stroke-miterlimit="1.5" stroke-linecap="round" stroke-linejoin="round"/>
<path d="M29.7427 19.8919C29.8265 17.3018 29.6837 14.728 29.762 12.1389" stroke="#111827" stroke-width="2.93433" stroke-miterlimit="1.5" stroke-linecap="round" stroke-linejoin="round"/>
<path d="M50.1693 22.2532C51.4672 20.152 52.8147 18.0346 53.9541 15.8178" stroke="#111827" stroke-width="2.93433" stroke-miterlimit="1.5" stroke-linecap="round" stroke-linejoin="round"/>
</svg>
