<svg width="70" height="41" viewBox="0 0 70 41" fill="none" xmlns="http://www.w3.org/2000/svg">
<path d="M67.6705 21.1827C66.2707 16.2322 66.0586 11.0135 64.6398 6.09796C64.3995 5.26443 64.1775 2.42464 63.5279 1.8259M63.5279 1.8259C62.6841 1.04906 60.5695 2.90705 60.0642 3.3236C57.5168 5.4239 53.1075 9.13608 50.5832 11.7828M63.5279 1.8259C61.135 15.1635 48.1123 29.9814 37.4835 25.6443M37.4835 25.6443C34.6695 24.4961 32.0234 22.0052 29.7866 17.7888C25.5578 9.81649 34.9019 5.18892 38.9436 12.4229C41.1746 16.4172 39.5629 21.7541 37.4835 25.6443ZM37.4835 25.6443C36.8863 26.7617 36.2505 27.7597 35.6561 28.5723C28.2866 38.6468 13.3676 41.9082 2.08226 37.1457" stroke="#111827" stroke-width="2.93433" stroke-miterlimit="1.5" stroke-linecap="round" stroke-linejoin="round"/>
</svg>
