<svg width="30" height="18" viewBox="0 0 30 18" fill="none" xmlns="http://www.w3.org/2000/svg">
<path fill-rule="evenodd" clip-rule="evenodd" d="M19.1274 0.527504C19.4649 0.190056 19.9227 0.000488281 20.4 0.000488281C20.8773 0.000488281 21.335 0.190056 21.6726 0.527504L28.8726 7.7275C29.21 8.06505 29.3996 8.52281 29.3996 9.0001C29.3996 9.4774 29.21 9.93515 28.8726 10.2727L21.6726 17.4727C21.3331 17.8006 20.8784 17.982 20.4065 17.9779C19.9345 17.9738 19.483 17.7845 19.1493 17.4508C18.8156 17.117 18.6263 16.6656 18.6222 16.1936C18.6181 15.7217 18.7995 15.267 19.1274 14.9275L23.2548 10.8001H2.39998C1.92259 10.8001 1.46475 10.6105 1.12718 10.2729C0.789618 9.93533 0.599976 9.47749 0.599976 9.0001C0.599976 8.52271 0.789618 8.06488 1.12718 7.72731C1.46475 7.38975 1.92259 7.2001 2.39998 7.2001H23.2548L19.1274 3.0727C18.7899 2.73515 18.6004 2.2774 18.6004 1.8001C18.6004 1.32281 18.7899 0.865054 19.1274 0.527504Z" fill="white"/>
</svg>
