<svg width="30" height="18" viewBox="0 0 30 18" fill="none" xmlns="http://www.w3.org/2000/svg">
<path fill-rule="evenodd" clip-rule="evenodd" d="M10.8726 17.4725C10.5351 17.8099 10.0773 17.9995 9.60003 17.9995C9.12273 17.9995 8.66498 17.8099 8.32743 17.4725L1.12742 10.2725C0.789976 9.93495 0.60041 9.47719 0.60041 8.9999C0.60041 8.5226 0.789976 8.06485 1.12742 7.7273L8.32743 0.527296C8.66691 0.199411 9.12159 0.0179825 9.59355 0.0220833C10.0655 0.0261841 10.517 0.215488 10.8507 0.549223C11.1844 0.882957 11.3737 1.33442 11.3778 1.80637C11.3819 2.27833 11.2005 2.73301 10.8726 3.0725L6.74522 7.1999L27.6 7.1999C28.0774 7.1999 28.5353 7.38954 28.8728 7.7271C29.2104 8.06467 29.4 8.52251 29.4 8.9999C29.4 9.47729 29.2104 9.93512 28.8728 10.2727C28.5353 10.6103 28.0774 10.7999 27.6 10.7999L6.74522 10.7999L10.8726 14.9273C11.2101 15.2648 11.3996 15.7226 11.3996 16.1999C11.3996 16.6772 11.2101 17.1349 10.8726 17.4725Z" fill="white"/>
</svg>
